<?xml version="1.0" encoding="utf-8"?>
<!-- Generator: Adobe Illustrator 19.2.1, SVG Export Plug-In . SVG Version: 6.00 Build 0)  -->
<svg version="1.1" id="layer" xmlns="http://www.w3.org/2000/svg" xmlns:xlink="http://www.w3.org/1999/xlink" x="0px" y="0px"
	 viewBox="0 0 652 652" style="enable-background:new 0 0 652 652;" xml:space="preserve">
<style type="text/css">
	.st0{opacity:0.75;fill:#9ACA3C;enable-background:new    ;}
	.st1{fill:#50AADF;}
</style>
<path class="st0" d="M21.8,289.2l26,49.5c1.8,3.4,6.2,6.1,9.8,6.1l53.1-0.1c3.6,0,5.1-2.7,3.3-6.1l-26-49.5
	c-1.8-3.4-6.1-6.1-9.8-6.1L25.1,283h-0.2C21.4,283.2,20,285.9,21.8,289.2 M122.6,346.9l15.7,29.4c1.1,2,3.7,3.6,5.9,3.6l31.6-0.3
	c2.2,0,3-1.7,2-3.7L162,346.5c-1.1-2-3.7-3.6-5.8-3.6l-31.6,0.3h-0.1C122.3,343.3,121.5,344.9,122.6,346.9"/>
<path class="st1" d="M122.7,235.3l-31.6,40.6c-2.2,2.8-2.4,7.7-0.6,11.1l26.4,49.3c1.8,3.4,5,3.9,7.2,1.1l31.6-40.6
	c2.1-2.8,2.4-7.7,0.6-11.1l-26.4-49.3c-1-2-2.5-2.9-4.1-2.9C124.7,233.5,123.6,234.1,122.7,235.3 M115.4,347.4l-18.9,24.2
	c-1.3,1.7-1.5,4.6-0.4,6.6l15.8,29.4c1.1,2,3,2.3,4.3,0.6L135,384c1.3-1.7,1.5-4.6,0.4-6.6L119.6,348c-0.6-1.1-1.5-1.7-2.4-1.7
	C116.5,346.3,115.9,346.7,115.4,347.4 M461,356h10.5v-79.5H461V356z"/>
<path class="st0" d="M271.9,301.6c-15.1,0-27.4,12.3-27.4,27.4h0v50.6H255V329h0c0-9.4,7.6-17,16.9-17c9.4,0,16.9,7.6,16.9,17
	c0,9.4-7.6,17-17,17c-5.3,0-10-2.4-13.1-6.2v13.4c3.9,2.1,8.3,3.3,13,3.3c15.1,0,27.4-12.3,27.4-27.4
	C299.3,313.9,287,301.6,271.9,301.6 M331.4,301.6c-15.1,0-27.4,12.3-27.4,27.4h0v50.6h10.6V329h0c0-9.4,7.6-17,16.9-17
	c9.4,0,17,7.6,17,17c0,9.4-7.6,17-17,17c-5.3,0-10-2.4-13.1-6.2v13.4c3.9,2.1,8.3,3.3,13,3.3c15.1,0,27.4-12.3,27.4-27.4
	C358.8,313.9,346.5,301.6,331.4,301.6 M210.6,276.5c-15.1,0-27.4,12.3-27.4,27.4v52h10.6v-52c0-9.3,7.5-16.8,16.9-16.8
	c9.3,0,16.8,7.5,16.8,16.8v6h-27.1v10.6h27.1V356H238v-52C238,288.8,225.7,276.5,210.6,276.5"/>
<path class="st1" d="M425.7,303.9c0-9.3,7.6-16.8,16.9-16.8h13.3v-10.6h-13.3c-15.1,0-27.4,12.3-27.4,27.4v52h10.6v-34.5h29.2V311
	h-29.2L425.7,303.9 M515.7,302v33.2c-0.1,6.7-5.6,12-12.3,12c-6.7,0-12.1-5.4-12.3-12V302h-10.6v33.2h0c0.1,10.7,7.6,19.6,17.5,21.9
	v22.5h10.6v-22.5c10-2.4,17.4-11.3,17.6-21.9h0V302L515.7,302 M575,333.2c-1.1,4.4-4,8.2-7.9,10.4c-8.1,4.7-18.4,1.9-23-6.2
	c-4.6-8.1-1.9-18.4,6.2-23c6.5-3.7,14.4-2.7,19.6,2l-23.7,13.7l5.3,9.1l11-6.3l22.2-12.8c-0.6-1.6-1.3-3.3-2.2-4.8
	c-7.6-13.1-24.3-17.6-37.4-10c-13.1,7.6-17.6,24.3-10,37.4s24.3,17.6,37.4,10c7.5-4.3,12.2-11.7,13.4-19.6L575,333.2 M618.9,301.6
	c-6.4,0-12.2,2.2-16.9,5.8v-5.6h-10.6V356H602v-26.9c0-9.3,7.5-16.9,16.8-16.9h2.1v-10.6L618.9,301.6"/>
<path class="st0" d="M398.8,330.9l-26.3-12.3c-1.3-0.6-1.8-2.1-1.2-3.4c0.4-0.9,1.4-1.5,2.3-1.5v0h30v-10.6h-30
	c-5,0-9.7,2.8-11.9,7.6c-3.1,6.6-0.2,14.4,6.3,17.5l26.3,12.2c1.3,0.6,1.9,2.2,1.3,3.5c-0.4,1-1.4,1.5-2.4,1.5v0h-30.7V356h30.7
	c5,0,9.7-2.8,11.9-7.6C408.3,341.8,405.4,334,398.8,330.9"/>
</svg>
